<svg xmlns="http://www.w3.org/2000/svg" xmlns:xlink="http://www.w3.org/1999/xlink" width="220" zoomAndPan="magnify" viewBox="0 0 165 165.000002" height="220" preserveAspectRatio="xMidYMid meet" version="1.0"><defs><clipPath id="f58cff2814"><path d="M 1 1.183594 L 36 1.183594 L 36 29 L 1 29 Z M 1 1.183594 " clip-rule="nonzero"/></clipPath><clipPath id="40c0c1b55a"><path d="M 35 50 L 82 50 L 82 58.429688 L 35 58.429688 Z M 35 50 " clip-rule="nonzero"/></clipPath><clipPath id="63c7753a1a"><path d="M 15.363281 48.613281 L 105.503906 48.613281 L 105.503906 58.824219 L 15.363281 58.824219 Z M 15.363281 48.613281 " clip-rule="nonzero"/></clipPath><clipPath id="4cb98f589e"><path d="M 20.46875 48.613281 L 100.378906 48.613281 C 103.199219 48.613281 105.484375 50.898438 105.484375 53.71875 C 105.484375 56.535156 103.199219 58.824219 100.378906 58.824219 L 20.46875 58.824219 C 17.648438 58.824219 15.363281 56.535156 15.363281 53.71875 C 15.363281 50.898438 17.648438 48.613281 20.46875 48.613281 Z M 20.46875 48.613281 " clip-rule="nonzero"/></clipPath><clipPath id="b8ce09d954"><path d="M 0.363281 0.613281 L 90.503906 0.613281 L 90.503906 10.824219 L 0.363281 10.824219 Z M 0.363281 0.613281 " clip-rule="nonzero"/></clipPath><clipPath id="546d8302d1"><path d="M 5.46875 0.613281 L 85.378906 0.613281 C 88.199219 0.613281 90.484375 2.898438 90.484375 5.71875 C 90.484375 8.535156 88.199219 10.824219 85.378906 10.824219 L 5.46875 10.824219 C 2.648438 10.824219 0.363281 8.535156 0.363281 5.71875 C 0.363281 2.898438 2.648438 0.613281 5.46875 0.613281 Z M 5.46875 0.613281 " clip-rule="nonzero"/></clipPath><clipPath id="f006c11b76"><rect x="0" width="91" y="0" height="11"/></clipPath><clipPath id="639656de71"><rect x="0" width="117" y="0" height="60"/></clipPath></defs><g transform="matrix(1, 0, 0, 1, 24, 52)"><g clip-path="url(#639656de71)"><path fill="#ed1c24" d="M 1.574219 10.730469 C 5.480469 9.515625 9.316406 7.695312 13.460938 9.515625 C 15.566406 10.730469 16.175781 12.210938 16.414062 13.730469 L 16.414062 25.222656 C 16.921875 30.109375 24.191406 29.433594 24.257812 25.222656 L 24.257812 13.191406 C 24.089844 10.628906 21 6.550781 15.328125 6.347656 C 10.4375 6.347656 5.511719 7.628906 1.609375 9.652344 L 1.609375 10.730469 Z M 1.574219 10.730469 " fill-opacity="1" fill-rule="nonzero"/><path fill="#ed1c24" d="M 1.574219 12.820312 C 3.375 12.515625 4.867188 12.652344 4.699219 14.941406 L 4.699219 25.863281 C 5.410156 29.503906 11.660156 29.0625 12.035156 25.863281 L 12.035156 13.359375 C 11.386719 11.132812 9.316406 10.089844 5.277344 10.59375 C 3.917969 10.761719 2.730469 11.101562 1.574219 11.4375 Z M 1.574219 12.820312 " fill-opacity="1" fill-rule="nonzero"/><path fill="#ed1c24" d="M 96.929688 25.15625 C 96.929688 25.996094 96.691406 26.671875 96.113281 27.144531 C 95.605469 27.648438 94.855469 27.882812 93.972656 27.882812 C 93.058594 27.882812 92.34375 27.648438 91.800781 27.144531 C 91.222656 26.636719 90.984375 25.964844 90.984375 25.085938 L 90.984375 16.425781 C 90.984375 15.582031 91.222656 14.941406 91.664062 14.503906 C 92.140625 14.03125 92.820312 13.832031 93.667969 13.832031 C 94.585938 13.832031 95.265625 14.03125 95.707031 14.4375 C 96.179688 14.875 96.386719 15.515625 96.386719 16.390625 L 96.386719 17.539062 C 96.859375 16.222656 97.4375 15.28125 98.082031 14.671875 C 98.726562 14.03125 99.476562 13.730469 100.359375 13.730469 C 101.070312 13.730469 101.648438 13.933594 102.089844 14.371094 C 102.496094 14.808594 102.703125 15.414062 102.703125 16.191406 C 102.703125 16.898438 102.496094 17.46875 102.054688 17.875 C 101.613281 18.3125 100.867188 18.617188 99.78125 18.917969 C 98.695312 19.15625 97.949219 19.527344 97.539062 20.03125 C 97.097656 20.503906 96.894531 21.179688 96.894531 22.085938 L 96.894531 25.15625 Z M 96.929688 25.15625 " fill-opacity="1" fill-rule="nonzero"/><path fill="#ed1c24" d="M 66.0625 23.773438 L 66.0625 25.222656 C 66.0625 26.066406 65.789062 26.738281 65.246094 27.210938 C 64.738281 27.683594 63.988281 27.917969 63.074219 27.917969 C 62.191406 27.917969 61.476562 27.683594 60.933594 27.144531 C 60.421875 26.671875 60.117188 25.996094 60.117188 25.121094 L 60.117188 11.808594 C 60.117188 10.964844 60.390625 10.292969 60.933594 9.785156 C 61.441406 9.28125 62.191406 9.042969 63.074219 9.042969 C 63.957031 9.042969 64.667969 9.28125 65.246094 9.753906 C 65.753906 10.257812 66.0625 10.933594 66.0625 11.773438 L 66.0625 18.28125 L 68.878906 15.28125 C 69.355469 14.773438 69.796875 14.402344 70.203125 14.167969 C 70.609375 13.964844 71.050781 13.863281 71.492188 13.863281 C 72.140625 13.863281 72.683594 14.03125 73.125 14.371094 C 73.566406 14.773438 73.769531 15.210938 73.769531 15.71875 C 73.769531 16.019531 73.703125 16.324219 73.566406 16.59375 C 73.394531 16.863281 73.15625 17.167969 72.886719 17.4375 L 71.050781 19.121094 L 74.109375 23.335938 C 74.347656 23.707031 74.550781 24.078125 74.71875 24.445312 C 74.890625 24.816406 74.925781 25.15625 74.925781 25.492188 C 74.925781 26.164062 74.6875 26.738281 74.109375 27.210938 C 73.53125 27.683594 72.921875 27.917969 72.105469 27.917969 C 71.527344 27.917969 71.050781 27.785156 70.644531 27.613281 C 70.238281 27.378906 69.898438 27.042969 69.558594 26.570312 L 67.078125 22.796875 Z M 66.0625 23.773438 " fill-opacity="1" fill-rule="nonzero"/><g clip-path="url(#f58cff2814)"><path fill="#ed1c24" d="M 35.398438 26.738281 C 33.734375 25.324219 32.917969 23.402344 32.917969 20.976562 C 32.917969 18.515625 33.765625 16.527344 35.464844 15.109375 C 35.601562 14.976562 35.769531 14.875 35.941406 14.742188 L 35.941406 11.84375 C 35.398438 8.539062 33.9375 3.484375 25.074219 1.460938 C 18.585938 0.214844 8.839844 3.617188 1.574219 7.425781 C 1.539062 7.832031 1.609375 8.203125 1.574219 8.605469 C 7.449219 5.875 13.5625 3.515625 21.40625 4.695312 C 25.039062 5.945312 27.757812 8.371094 28.433594 13.492188 L 28.433594 25.492188 C 28.976562 28.492188 34.105469 29.234375 35.566406 26.839844 C 35.5 26.804688 35.429688 26.773438 35.398438 26.738281 " fill-opacity="1" fill-rule="nonzero"/></g><path fill="#ed1c24" d="M 59.132812 14.503906 C 58.828125 14.234375 58.316406 14.101562 57.671875 14.101562 L 56.417969 14.101562 L 56.417969 13.460938 C 56.417969 13.054688 56.550781 12.753906 56.789062 12.550781 C 57.027344 12.347656 57.433594 12.28125 58.011719 12.28125 C 58.65625 12.28125 59.097656 12.144531 59.371094 11.910156 C 59.644531 11.671875 59.8125 11.304688 59.8125 10.761719 C 59.8125 10.089844 59.4375 9.617188 58.792969 9.28125 C 58.113281 9.011719 57.0625 8.84375 55.636719 8.84375 C 53.902344 8.84375 52.613281 9.214844 51.832031 9.921875 C 50.984375 10.628906 50.574219 11.742188 50.574219 13.257812 L 50.574219 14.101562 L 49.625 14.101562 C 49.117188 14.101562 48.742188 14.269531 48.4375 14.570312 C 48.300781 14.742188 48.199219 14.910156 48.097656 15.078125 C 48.199219 15.144531 48.265625 15.246094 48.367188 15.3125 C 48.910156 15.820312 49.386719 16.425781 49.761719 17.132812 L 50.609375 17.132812 L 50.609375 25.054688 C 50.609375 25.929688 50.882812 26.605469 51.425781 27.109375 C 51.933594 27.613281 52.679688 27.882812 53.5625 27.882812 C 54.480469 27.882812 55.195312 27.648438 55.738281 27.175781 C 56.246094 26.671875 56.484375 26.03125 56.484375 25.15625 L 56.484375 17.167969 L 57.773438 17.167969 C 58.386719 17.167969 58.863281 17.03125 59.167969 16.761719 C 59.539062 16.492188 59.675781 16.089844 59.675781 15.582031 C 59.644531 15.078125 59.472656 14.742188 59.132812 14.503906 " fill-opacity="1" fill-rule="nonzero"/><path fill="#ed1c24" d="M 47.316406 22.085938 C 48.199219 22.085938 48.878906 21.917969 49.285156 21.617188 C 49.691406 21.3125 49.898438 20.808594 49.898438 20.132812 C 49.898438 19.730469 49.863281 19.324219 49.726562 18.988281 C 49.660156 18.617188 49.523438 18.246094 49.320312 17.839844 C 48.945312 17.03125 48.46875 16.359375 47.859375 15.820312 C 47.113281 15.078125 46.230469 14.503906 45.246094 14.132812 C 44.292969 13.761719 43.207031 13.628906 42.085938 13.628906 C 39.4375 13.628906 37.398438 14.300781 35.871094 15.617188 C 34.308594 16.929688 33.527344 18.71875 33.527344 20.976562 C 33.527344 23.199219 34.277344 24.953125 35.769531 26.234375 C 37.296875 27.515625 39.300781 28.1875 41.816406 28.1875 L 42.050781 28.1875 C 44.054688 28.152344 45.71875 27.816406 47.042969 27.210938 C 48.367188 26.570312 49.046875 25.761719 49.046875 24.785156 C 49.046875 24.347656 48.84375 23.941406 48.539062 23.671875 C 48.164062 23.402344 47.722656 23.234375 47.179688 23.234375 C 46.671875 23.234375 46.027344 23.46875 45.210938 23.941406 L 44.632812 24.246094 C 44.226562 24.445312 43.886719 24.546875 43.546875 24.683594 C 43.171875 24.75 42.832031 24.816406 42.460938 24.816406 L 42.050781 24.816406 C 41.238281 24.75 40.660156 24.546875 40.21875 24.144531 C 39.980469 23.90625 39.777344 23.636719 39.640625 23.265625 C 39.472656 22.964844 39.4375 22.558594 39.4375 22.121094 L 47.316406 22.121094 Z M 39.503906 19.359375 C 39.503906 18.988281 39.539062 18.648438 39.675781 18.3125 C 39.84375 18.007812 39.980469 17.707031 40.21875 17.503906 C 40.660156 17.066406 41.269531 16.832031 42.019531 16.832031 L 42.085938 16.832031 C 42.902344 16.832031 43.480469 17.066406 43.921875 17.46875 C 44.15625 17.707031 44.363281 17.976562 44.53125 18.28125 C 44.632812 18.582031 44.699219 18.953125 44.699219 19.359375 Z M 39.503906 19.359375 " fill-opacity="1" fill-rule="nonzero"/><path fill="#ed1c24" d="M 89.558594 14.605469 C 89.050781 14.101562 88.304688 13.863281 87.386719 13.863281 C 87.183594 13.863281 86.980469 13.863281 86.773438 13.898438 L 86.773438 13.933594 L 86.878906 14.371094 L 86.945312 14.671875 L 86.945312 14.707031 C 86.945312 15.109375 86.808594 15.480469 86.503906 15.75 C 86.230469 16.019531 85.824219 16.191406 85.347656 16.191406 C 85.042969 16.191406 84.738281 16.121094 84.5 15.988281 C 84.5 15.988281 84.464844 15.988281 84.464844 15.988281 C 84.433594 16.15625 84.433594 16.359375 84.433594 16.558594 L 84.433594 21.109375 C 84.433594 22.019531 84.226562 22.695312 83.855469 23.167969 C 83.480469 23.605469 82.9375 23.839844 82.226562 23.839844 C 81.476562 23.839844 80.933594 23.636719 80.664062 23.234375 C 80.355469 22.828125 80.222656 22.121094 80.222656 21.078125 L 80.222656 16.898438 C 80.222656 16.59375 80.1875 16.324219 80.152344 16.054688 C 79.914062 16.15625 79.644531 16.222656 79.339844 16.222656 C 78.929688 16.222656 78.558594 16.089844 78.25 15.851562 L 78.183594 15.785156 C 77.914062 15.515625 77.742188 15.144531 77.742188 14.742188 C 77.742188 14.570312 77.742188 14.402344 77.84375 14.203125 L 77.914062 13.933594 C 77.675781 13.898438 77.4375 13.863281 77.199219 13.863281 C 76.28125 13.863281 75.570312 14.101562 75.027344 14.605469 C 74.550781 15.109375 74.3125 15.886719 74.3125 16.863281 L 74.3125 21.109375 C 74.3125 21.648438 74.3125 22.15625 74.347656 22.59375 L 74.585938 22.929688 C 74.820312 23.265625 75.027344 23.671875 75.230469 24.144531 C 75.398438 24.515625 75.5 24.953125 75.5 25.457031 C 75.5 25.726562 75.46875 25.996094 75.398438 26.234375 C 75.773438 26.703125 76.214844 27.074219 76.792969 27.378906 C 77.640625 27.816406 78.558594 28.019531 79.679688 28.019531 C 80.867188 28.019531 81.886719 27.816406 82.734375 27.378906 C 83.582031 26.941406 84.296875 26.300781 84.90625 25.425781 C 84.90625 25.828125 84.976562 26.164062 85.109375 26.503906 C 85.246094 26.804688 85.417969 27.074219 85.621094 27.246094 C 86.0625 27.683594 86.742188 27.882812 87.589844 27.882812 C 88.472656 27.882812 89.152344 27.683594 89.59375 27.210938 C 90.070312 26.773438 90.308594 26.132812 90.308594 25.289062 L 90.308594 16.628906 C 90.339844 15.820312 90.070312 15.144531 89.558594 14.605469 " fill-opacity="1" fill-rule="nonzero"/><path fill="#ed1c24" d="M 80.460938 15.011719 C 80.253906 15.210938 80.085938 15.382812 79.949219 15.449219 C 79.78125 15.515625 79.574219 15.582031 79.371094 15.582031 C 79.132812 15.582031 78.898438 15.515625 78.691406 15.347656 C 78.523438 15.179688 78.457031 14.976562 78.457031 14.742188 C 78.457031 14.605469 78.457031 14.503906 78.488281 14.472656 L 78.558594 14.203125 L 80.1875 11.605469 C 80.425781 11.203125 80.765625 10.933594 81.070312 10.730469 C 81.375 10.5625 81.816406 10.460938 82.394531 10.460938 C 83.007812 10.460938 83.449219 10.59375 83.753906 10.730469 C 84.125 10.898438 84.433594 11.203125 84.667969 11.605469 L 86.164062 14.203125 L 86.230469 14.503906 L 86.265625 14.742188 C 86.265625 14.976562 86.199219 15.179688 86.027344 15.347656 C 85.859375 15.515625 85.621094 15.582031 85.347656 15.582031 C 85.144531 15.582031 84.941406 15.550781 84.773438 15.449219 C 84.601562 15.382812 84.464844 15.210938 84.261719 15.011719 L 82.394531 12.886719 Z M 80.460938 15.011719 " fill-opacity="1" fill-rule="nonzero"/><path fill="#ed1c24" d="M 108.066406 19.359375 L 105.453125 19.359375 C 105.453125 18.988281 105.484375 18.648438 105.621094 18.3125 C 105.792969 18.007812 105.925781 17.707031 106.199219 17.503906 C 106.640625 17.066406 107.253906 16.832031 108.03125 16.832031 L 108.066406 16.832031 C 108.882812 16.832031 109.460938 17.066406 109.902344 17.46875 C 110.136719 17.707031 110.34375 17.976562 110.511719 18.28125 C 110.648438 18.582031 110.683594 18.953125 110.683594 19.359375 Z M 115.707031 18.988281 C 115.640625 18.617188 115.503906 18.246094 115.300781 17.839844 C 114.925781 17.03125 114.449219 16.359375 113.839844 15.820312 C 113.09375 15.078125 112.210938 14.503906 111.226562 14.132812 C 110.273438 13.761719 109.222656 13.628906 108.066406 13.628906 C 106.097656 13.628906 104.46875 14 103.109375 14.742188 C 103.277344 15.179688 103.378906 15.652344 103.378906 16.222656 C 103.378906 17.132812 103.109375 17.839844 102.53125 18.378906 C 102.023438 18.886719 101.242188 19.257812 99.949219 19.558594 L 99.917969 19.558594 C 99.816406 19.59375 99.714844 19.59375 99.644531 19.628906 C 99.578125 20.066406 99.542969 20.503906 99.542969 21.007812 C 99.542969 23.234375 100.257812 24.984375 101.75 26.265625 C 103.277344 27.546875 105.28125 28.222656 107.796875 28.222656 L 108.03125 28.222656 C 110.035156 28.1875 111.667969 27.851562 112.992188 27.210938 C 114.316406 26.570312 114.996094 25.761719 114.996094 24.785156 C 114.996094 24.347656 114.824219 23.941406 114.484375 23.671875 C 114.113281 23.402344 113.671875 23.234375 113.125 23.234375 C 112.617188 23.234375 111.972656 23.46875 111.15625 23.941406 L 110.578125 24.246094 C 110.171875 24.445312 109.800781 24.546875 109.492188 24.683594 C 109.121094 24.75 108.78125 24.816406 108.40625 24.816406 L 108 24.816406 C 107.183594 24.75 106.605469 24.546875 106.164062 24.144531 C 105.925781 23.90625 105.722656 23.636719 105.589844 23.265625 C 105.417969 22.964844 105.382812 22.558594 105.382812 22.121094 L 113.230469 22.121094 C 114.113281 22.121094 114.789062 21.953125 115.199219 21.648438 C 115.605469 21.347656 115.808594 20.839844 115.808594 20.167969 C 115.878906 19.761719 115.808594 19.359375 115.707031 18.988281 Z M 115.707031 18.988281 " fill-opacity="1" fill-rule="nonzero"/><path fill="#005aaa" d="M 17.703125 40.488281 L 3.238281 40.488281 C 2.898438 40.488281 2.628906 40.21875 2.628906 39.882812 C 2.628906 39.546875 2.898438 39.277344 3.238281 39.277344 L 17.703125 39.277344 C 18.042969 39.277344 18.316406 39.546875 18.316406 39.882812 C 18.316406 40.21875 18.042969 40.488281 17.703125 40.488281 " fill-opacity="1" fill-rule="nonzero"/><path fill="#005aaa" d="M 114.214844 40.488281 L 99.746094 40.488281 C 99.40625 40.488281 99.136719 40.21875 99.136719 39.882812 C 99.136719 39.546875 99.40625 39.277344 99.746094 39.277344 L 114.214844 39.277344 C 114.554688 39.277344 114.824219 39.546875 114.824219 39.882812 C 114.824219 40.21875 114.554688 40.488281 114.214844 40.488281 " fill-opacity="1" fill-rule="nonzero"/><path fill="#005aaa" d="M 93.769531 43.554688 C 93.769531 44.027344 93.636719 44.367188 93.363281 44.601562 C 93.089844 44.835938 92.71875 44.972656 92.242188 44.972656 C 91.734375 44.972656 91.359375 44.871094 91.089844 44.636719 C 90.816406 44.398438 90.714844 44.0625 90.714844 43.589844 L 90.714844 36.679688 C 90.714844 36.242188 90.851562 35.871094 91.121094 35.636719 C 91.394531 35.398438 91.765625 35.265625 92.242188 35.265625 C 92.75 35.265625 93.125 35.398438 93.363281 35.601562 C 93.632812 35.839844 93.738281 36.175781 93.738281 36.648438 L 93.738281 43.554688 Z M 83.617188 43.625 C 83.617188 44.0625 83.480469 44.398438 83.210938 44.636719 C 82.9375 44.871094 82.5625 45.003906 82.089844 45.003906 C 81.613281 45.003906 81.238281 44.871094 80.96875 44.636719 C 80.695312 44.398438 80.5625 44.027344 80.5625 43.589844 L 80.5625 37.1875 C 80.5625 36.546875 80.695312 36.074219 80.96875 35.804688 C 81.238281 35.535156 81.714844 35.433594 82.394531 35.433594 L 85.109375 35.433594 C 86.539062 35.433594 87.554688 35.636719 88.167969 36.074219 C 88.777344 36.511719 89.085938 37.1875 89.085938 38.128906 C 89.085938 38.738281 88.949219 39.242188 88.675781 39.613281 C 88.40625 39.984375 87.996094 40.289062 87.421875 40.488281 C 87.894531 40.589844 88.234375 40.726562 88.4375 40.894531 C 88.675781 41.0625 88.847656 41.332031 88.949219 41.703125 C 88.984375 41.769531 88.984375 41.9375 89.015625 42.242188 C 89.050781 42.476562 89.050781 42.644531 89.085938 42.78125 C 89.085938 42.882812 89.117188 43.015625 89.152344 43.1875 C 89.21875 43.488281 89.21875 43.726562 89.21875 43.859375 C 89.21875 44.230469 89.085938 44.5 88.8125 44.703125 C 88.542969 44.90625 88.167969 45.003906 87.691406 45.003906 C 87.488281 45.003906 87.285156 44.972656 87.113281 44.9375 C 86.945312 44.871094 86.773438 44.804688 86.640625 44.703125 C 86.367188 44.5 86.230469 43.996094 86.128906 43.21875 C 86.128906 43.050781 86.097656 42.949219 86.097656 42.847656 C 86.027344 42.375 85.925781 42.039062 85.757812 41.871094 C 85.585938 41.703125 85.28125 41.636719 84.804688 41.636719 L 83.515625 41.636719 L 83.515625 43.625 Z M 83.617188 39.476562 L 85.007812 39.476562 C 85.519531 39.476562 85.859375 39.410156 86.027344 39.277344 C 86.199219 39.140625 86.300781 38.90625 86.300781 38.535156 C 86.300781 38.230469 86.199219 37.996094 85.996094 37.894531 C 85.789062 37.757812 85.449219 37.691406 84.90625 37.691406 L 83.582031 37.691406 L 83.582031 39.476562 Z M 73.835938 41.636719 L 75.773438 41.636719 L 74.820312 38.367188 Z M 73.054688 44.164062 C 72.953125 44.433594 72.785156 44.667969 72.582031 44.804688 C 72.378906 44.9375 72.105469 45.039062 71.800781 45.039062 C 71.390625 45.039062 71.050781 44.90625 70.78125 44.703125 C 70.542969 44.464844 70.40625 44.164062 70.40625 43.757812 C 70.40625 43.625 70.40625 43.523438 70.441406 43.421875 C 70.441406 43.320312 70.476562 43.253906 70.507812 43.1875 L 72.820312 36.714844 C 72.988281 36.175781 73.226562 35.839844 73.429688 35.636719 C 73.667969 35.433594 73.972656 35.332031 74.347656 35.332031 L 75.230469 35.332031 C 75.601562 35.332031 75.910156 35.433594 76.144531 35.601562 C 76.382812 35.804688 76.585938 36.175781 76.792969 36.714844 L 79.132812 43.1875 C 79.167969 43.253906 79.203125 43.355469 79.203125 43.457031 C 79.238281 43.554688 79.238281 43.65625 79.238281 43.792969 C 79.238281 44.195312 79.101562 44.5 78.863281 44.734375 C 78.625 44.972656 78.285156 45.074219 77.878906 45.074219 C 77.574219 45.074219 77.265625 45.003906 77.0625 44.871094 C 76.824219 44.734375 76.691406 44.5 76.585938 44.230469 L 76.382812 43.691406 L 73.328125 43.691406 Z M 65.449219 42.410156 L 68.269531 42.410156 C 68.710938 42.410156 69.050781 42.511719 69.253906 42.714844 C 69.492188 42.917969 69.59375 43.253906 69.59375 43.65625 C 69.59375 44.027344 69.492188 44.332031 69.253906 44.535156 C 69.015625 44.734375 68.710938 44.835938 68.269531 44.835938 L 63.921875 44.835938 C 63.378906 44.835938 63.003906 44.734375 62.765625 44.5 C 62.527344 44.265625 62.394531 43.925781 62.394531 43.457031 L 62.394531 36.679688 C 62.394531 36.242188 62.527344 35.871094 62.800781 35.636719 C 63.074219 35.398438 63.445312 35.265625 63.921875 35.265625 C 64.429688 35.265625 64.804688 35.398438 65.042969 35.601562 C 65.3125 35.839844 65.414062 36.175781 65.414062 36.648438 L 65.414062 42.410156 Z M 52.953125 42.78125 C 52.953125 42.375 53.089844 42.074219 53.328125 41.835938 C 53.5625 41.601562 53.871094 41.46875 54.242188 41.46875 C 54.617188 41.46875 55.023438 41.667969 55.464844 42.105469 C 55.535156 42.175781 55.601562 42.242188 55.636719 42.308594 C 55.875 42.546875 56.109375 42.714844 56.28125 42.78125 C 56.484375 42.847656 56.722656 42.917969 56.992188 42.917969 C 57.332031 42.917969 57.605469 42.847656 57.808594 42.714844 C 58.011719 42.578125 58.113281 42.410156 58.113281 42.175781 C 58.113281 41.835938 57.671875 41.566406 56.824219 41.296875 C 56.621094 41.230469 56.417969 41.195312 56.316406 41.128906 C 55.667969 40.925781 55.160156 40.757812 54.785156 40.625 C 54.414062 40.488281 54.140625 40.320312 53.972656 40.1875 C 53.632812 39.917969 53.394531 39.613281 53.222656 39.277344 C 53.054688 38.9375 52.988281 38.570312 52.988281 38.128906 C 52.988281 37.1875 53.328125 36.445312 54.039062 35.90625 C 54.753906 35.367188 55.738281 35.128906 56.992188 35.128906 C 58.113281 35.128906 59.03125 35.332031 59.746094 35.769531 C 60.457031 36.175781 60.832031 36.714844 60.832031 37.320312 C 60.832031 37.691406 60.730469 37.960938 60.492188 38.164062 C 60.289062 38.367188 59.980469 38.46875 59.574219 38.46875 C 59.203125 38.46875 58.792969 38.265625 58.351562 37.894531 C 58.25 37.792969 58.148438 37.726562 58.082031 37.691406 C 57.910156 37.558594 57.707031 37.421875 57.503906 37.355469 C 57.300781 37.289062 57.097656 37.253906 56.890625 37.253906 C 56.585938 37.253906 56.347656 37.320312 56.179688 37.421875 C 56.007812 37.523438 55.90625 37.691406 55.90625 37.894531 C 55.90625 38.230469 56.347656 38.5 57.230469 38.769531 L 57.265625 38.769531 C 57.332031 38.804688 57.433594 38.839844 57.570312 38.871094 C 58.828125 39.242188 59.609375 39.546875 59.949219 39.816406 C 60.320312 40.117188 60.59375 40.421875 60.761719 40.726562 C 60.933594 41.0625 61.035156 41.433594 61.035156 41.90625 C 61.035156 42.949219 60.660156 43.757812 59.949219 44.296875 C 59.203125 44.835938 58.148438 45.105469 56.757812 45.105469 C 55.566406 45.105469 54.652344 44.90625 53.9375 44.464844 C 53.292969 44.0625 52.953125 43.488281 52.953125 42.78125 Z M 46.398438 43.625 C 46.398438 44.0625 46.261719 44.398438 45.992188 44.636719 C 45.71875 44.871094 45.347656 45.003906 44.871094 45.003906 C 44.394531 45.003906 44.023438 44.871094 43.75 44.636719 C 43.480469 44.398438 43.34375 44.027344 43.34375 43.589844 L 43.34375 37.1875 C 43.34375 36.546875 43.480469 36.074219 43.75 35.804688 C 44.023438 35.535156 44.496094 35.433594 45.175781 35.433594 L 47.894531 35.433594 C 49.320312 35.433594 50.339844 35.636719 50.949219 36.074219 C 51.5625 36.511719 51.867188 37.1875 51.867188 38.128906 C 51.867188 38.738281 51.730469 39.242188 51.457031 39.613281 C 51.1875 39.984375 50.78125 40.289062 50.203125 40.488281 C 50.679688 40.589844 51.015625 40.726562 51.222656 40.894531 C 51.457031 41.0625 51.628906 41.332031 51.730469 41.703125 C 51.765625 41.769531 51.765625 41.9375 51.796875 42.242188 C 51.832031 42.476562 51.832031 42.644531 51.867188 42.78125 C 51.867188 42.882812 51.898438 43.015625 51.933594 43.1875 C 52.003906 43.488281 52.003906 43.726562 52.003906 43.859375 C 52.003906 44.230469 51.867188 44.5 51.59375 44.703125 C 51.324219 44.90625 50.949219 45.003906 50.472656 45.003906 C 50.269531 45.003906 50.066406 44.972656 49.898438 44.9375 C 49.726562 44.871094 49.558594 44.804688 49.421875 44.703125 C 49.148438 44.5 49.015625 43.996094 48.910156 43.21875 C 48.910156 43.050781 48.878906 42.949219 48.878906 42.847656 C 48.808594 42.375 48.707031 42.039062 48.539062 41.871094 C 48.367188 41.703125 48.0625 41.636719 47.585938 41.636719 L 46.296875 41.636719 L 46.296875 43.625 Z M 46.398438 39.476562 L 47.792969 39.476562 C 48.300781 39.476562 48.640625 39.410156 48.808594 39.277344 C 48.980469 39.140625 49.082031 38.90625 49.082031 38.535156 C 49.082031 38.230469 48.980469 37.996094 48.777344 37.894531 C 48.574219 37.757812 48.234375 37.691406 47.6875 37.691406 L 46.363281 37.691406 L 46.363281 39.476562 Z M 32.851562 41.46875 L 32.851562 36.714844 C 32.851562 36.277344 32.984375 35.90625 33.257812 35.671875 C 33.527344 35.433594 33.902344 35.300781 34.378906 35.300781 C 34.886719 35.300781 35.261719 35.433594 35.53125 35.671875 C 35.804688 35.90625 35.941406 36.242188 35.941406 36.679688 L 35.941406 41.265625 C 35.941406 41.804688 36.042969 42.175781 36.246094 42.410156 C 36.449219 42.644531 36.789062 42.746094 37.265625 42.746094 C 37.707031 42.746094 38.046875 42.644531 38.25 42.410156 C 38.453125 42.175781 38.554688 41.804688 38.554688 41.296875 L 38.554688 36.714844 C 38.554688 36.277344 38.691406 35.941406 38.960938 35.703125 C 39.234375 35.46875 39.605469 35.332031 40.117188 35.332031 C 40.59375 35.332031 40.964844 35.46875 41.238281 35.703125 C 41.507812 35.941406 41.644531 36.308594 41.644531 36.75 L 41.644531 41.5 C 41.644531 42.644531 41.269531 43.554688 40.492188 44.195312 C 39.742188 44.835938 38.65625 45.140625 37.265625 45.140625 C 35.871094 45.140625 34.820312 44.835938 34.039062 44.195312 C 33.257812 43.554688 32.851562 42.644531 32.851562 41.46875 Z M 26.636719 43.625 C 26.636719 44.0625 26.5 44.398438 26.261719 44.667969 C 25.988281 44.90625 25.617188 45.003906 25.140625 45.003906 C 24.664062 45.003906 24.292969 44.871094 24.019531 44.636719 C 23.75 44.398438 23.613281 44.027344 23.613281 43.589844 L 23.613281 36.75 C 23.613281 36.308594 23.75 35.941406 24.019531 35.703125 C 24.292969 35.46875 24.664062 35.332031 25.140625 35.332031 C 25.617188 35.332031 25.988281 35.46875 26.261719 35.703125 C 26.535156 35.941406 26.636719 36.277344 26.636719 36.714844 L 26.636719 38.601562 L 29.011719 35.90625 C 29.183594 35.703125 29.351562 35.570312 29.554688 35.46875 C 29.726562 35.367188 29.929688 35.332031 30.132812 35.332031 C 30.507812 35.332031 30.8125 35.433594 31.050781 35.671875 C 31.289062 35.90625 31.421875 36.175781 31.421875 36.480469 C 31.421875 36.679688 31.355469 36.882812 31.21875 37.121094 C 31.082031 37.355469 30.878906 37.589844 30.609375 37.894531 L 29.554688 38.972656 L 31.832031 42.476562 C 32 42.714844 32.101562 42.949219 32.171875 43.117188 C 32.238281 43.285156 32.273438 43.488281 32.273438 43.65625 C 32.273438 44.027344 32.101562 44.367188 31.796875 44.667969 C 31.492188 44.972656 31.117188 45.105469 30.675781 45.105469 C 30.40625 45.105469 30.167969 45.039062 29.929688 44.871094 C 29.726562 44.734375 29.488281 44.464844 29.285156 44.128906 L 27.417969 41.164062 L 26.667969 41.9375 L 26.667969 43.625 Z M 26.636719 43.625 " fill-opacity="1" fill-rule="nonzero"/><g clip-path="url(#40c0c1b55a)"><path fill="#ed1c24" d="M 37.128906 50.871094 L 80.324219 50.871094 C 81.105469 50.871094 81.75 51.511719 81.75 52.285156 L 81.75 57.003906 C 81.75 57.777344 81.105469 58.417969 80.324219 58.417969 L 37.128906 58.417969 C 36.347656 58.417969 35.703125 57.777344 35.703125 57.003906 L 35.703125 52.285156 C 35.667969 51.511719 36.3125 50.871094 37.128906 50.871094 " fill-opacity="1" fill-rule="evenodd"/></g><path fill="#ffffff" d="M 76.859375 55.351562 L 77.808594 55.285156 C 77.84375 55.453125 77.914062 55.589844 78.046875 55.691406 C 78.183594 55.789062 78.355469 55.824219 78.523438 55.824219 C 78.726562 55.824219 78.898438 55.757812 79.03125 55.621094 C 79.167969 55.488281 79.238281 55.285156 79.238281 55.050781 C 79.238281 54.8125 79.167969 54.609375 79.03125 54.511719 C 78.898438 54.375 78.726562 54.339844 78.488281 54.339844 C 78.21875 54.339844 77.980469 54.441406 77.742188 54.609375 L 76.960938 54.511719 L 77.4375 52.488281 L 79.949219 52.488281 L 79.949219 53.195312 L 78.148438 53.195312 L 78.015625 53.871094 C 78.21875 53.800781 78.457031 53.734375 78.660156 53.734375 C 79.101562 53.734375 79.441406 53.871094 79.746094 54.105469 C 80.050781 54.339844 80.1875 54.679688 80.1875 55.050781 C 80.1875 55.386719 80.050781 55.65625 79.8125 55.925781 C 79.472656 56.261719 79.03125 56.429688 78.457031 56.429688 C 77.980469 56.429688 77.605469 56.328125 77.335938 56.128906 C 77.097656 55.960938 76.894531 55.691406 76.859375 55.351562 M 75.160156 53.800781 C 75.160156 53.566406 75.09375 53.363281 74.957031 53.230469 C 74.820312 53.09375 74.652344 53.027344 74.480469 53.027344 C 74.3125 53.027344 74.175781 53.09375 74.039062 53.195312 C 73.9375 53.296875 73.871094 53.5 73.871094 53.734375 C 73.871094 54.003906 73.9375 54.171875 74.074219 54.308594 C 74.210938 54.410156 74.347656 54.476562 74.550781 54.476562 C 74.71875 54.476562 74.890625 54.410156 75.027344 54.308594 C 75.09375 54.207031 75.160156 54.039062 75.160156 53.800781 Z M 72.988281 55.453125 L 73.90625 55.386719 C 73.9375 55.519531 73.972656 55.65625 74.074219 55.722656 C 74.175781 55.789062 74.277344 55.824219 74.449219 55.824219 C 74.652344 55.824219 74.820312 55.757812 74.957031 55.621094 C 75.09375 55.488281 75.195312 55.183594 75.230469 54.746094 C 74.992188 54.980469 74.6875 55.082031 74.3125 55.082031 C 73.90625 55.082031 73.597656 54.949219 73.292969 54.710938 C 73.023438 54.476562 72.851562 54.171875 72.851562 53.769531 C 72.851562 53.363281 72.988281 53.0625 73.292969 52.789062 C 73.597656 52.554688 73.972656 52.421875 74.449219 52.421875 C 74.957031 52.421875 75.367188 52.589844 75.703125 52.890625 C 76.042969 53.195312 76.179688 53.699219 76.179688 54.410156 C 76.179688 55.117188 76.011719 55.65625 75.671875 55.960938 C 75.332031 56.261719 74.890625 56.429688 74.347656 56.429688 C 73.972656 56.429688 73.632812 56.363281 73.394531 56.195312 C 73.226562 56.027344 73.054688 55.789062 72.988281 55.453125 Z M 71.289062 53.800781 C 71.289062 53.566406 71.222656 53.363281 71.085938 53.230469 C 70.949219 53.09375 70.78125 53.027344 70.609375 53.027344 C 70.441406 53.027344 70.304688 53.09375 70.167969 53.195312 C 70.066406 53.296875 70 53.5 70 53.734375 C 70 54.003906 70.066406 54.171875 70.203125 54.308594 C 70.339844 54.410156 70.476562 54.476562 70.679688 54.476562 C 70.847656 54.476562 71.019531 54.410156 71.15625 54.308594 C 71.222656 54.207031 71.289062 54.039062 71.289062 53.800781 Z M 69.117188 55.453125 L 70.035156 55.386719 C 70.066406 55.519531 70.101562 55.65625 70.203125 55.722656 C 70.304688 55.789062 70.40625 55.824219 70.578125 55.824219 C 70.78125 55.824219 70.949219 55.757812 71.085938 55.621094 C 71.222656 55.488281 71.324219 55.183594 71.359375 54.746094 C 71.121094 54.980469 70.816406 55.082031 70.441406 55.082031 C 70.035156 55.082031 69.726562 54.949219 69.421875 54.710938 C 69.152344 54.476562 68.980469 54.171875 68.980469 53.769531 C 68.980469 53.363281 69.117188 53.0625 69.421875 52.789062 C 69.726562 52.554688 70.101562 52.421875 70.578125 52.421875 C 71.085938 52.421875 71.492188 52.589844 71.832031 52.890625 C 72.171875 53.195312 72.308594 53.699219 72.308594 54.410156 C 72.308594 55.117188 72.140625 55.65625 71.800781 55.960938 C 71.460938 56.261719 71.019531 56.429688 70.476562 56.429688 C 70.101562 56.429688 69.761719 56.363281 69.523438 56.195312 C 69.355469 56.027344 69.183594 55.789062 69.117188 55.453125 Z M 67.65625 56.363281 L 66.707031 56.363281 L 66.707031 53.53125 C 66.367188 53.800781 65.957031 53.96875 65.484375 54.105469 L 65.484375 53.429688 C 65.722656 53.363281 65.992188 53.261719 66.296875 53.0625 C 66.605469 52.890625 66.773438 52.65625 66.910156 52.421875 L 67.691406 52.421875 L 67.691406 56.363281 Z M 60.015625 57.410156 L 60.015625 57.105469 C 60.253906 57.140625 60.457031 57.140625 60.660156 57.140625 C 60.863281 57.140625 61 57.105469 61.101562 57.039062 C 61.171875 57.003906 61.203125 56.9375 61.203125 56.867188 C 61.203125 56.800781 61.171875 56.769531 61.101562 56.699219 C 61.035156 56.667969 60.933594 56.632812 60.761719 56.632812 C 60.628906 56.632812 60.457031 56.667969 60.320312 56.699219 L 60.421875 56.429688 C 60.59375 56.398438 60.796875 56.363281 61 56.363281 C 61.273438 56.363281 61.511719 56.398438 61.644531 56.5 C 61.78125 56.597656 61.882812 56.699219 61.882812 56.867188 C 61.882812 57.039062 61.816406 57.140625 61.644531 57.238281 C 61.441406 57.375 61.101562 57.441406 60.695312 57.441406 C 60.390625 57.476562 60.152344 57.441406 60.015625 57.410156 Z M 59.304688 55.589844 L 60.253906 55.488281 C 60.289062 55.621094 60.390625 55.757812 60.492188 55.824219 C 60.628906 55.890625 60.796875 55.925781 61 55.925781 C 61.238281 55.925781 61.441406 55.890625 61.542969 55.824219 C 61.613281 55.789062 61.679688 55.722656 61.679688 55.621094 C 61.679688 55.554688 61.644531 55.519531 61.613281 55.488281 C 61.578125 55.453125 61.441406 55.417969 61.304688 55.386719 C 60.527344 55.25 60.050781 55.117188 59.847656 55.015625 C 59.574219 54.847656 59.40625 54.644531 59.40625 54.375 C 59.40625 54.140625 59.539062 53.9375 59.777344 53.769531 C 60.015625 53.601562 60.421875 53.53125 60.933594 53.53125 C 61.441406 53.53125 61.78125 53.601562 62.019531 53.734375 C 62.257812 53.871094 62.425781 54.039062 62.527344 54.308594 L 61.644531 54.441406 C 61.613281 54.339844 61.542969 54.238281 61.441406 54.171875 C 61.339844 54.105469 61.171875 54.070312 60.96875 54.070312 C 60.730469 54.070312 60.527344 54.105469 60.421875 54.140625 C 60.355469 54.171875 60.320312 54.238281 60.320312 54.308594 C 60.320312 54.375 60.355469 54.410156 60.421875 54.441406 C 60.527344 54.476562 60.796875 54.578125 61.304688 54.644531 C 61.816406 54.746094 62.191406 54.847656 62.359375 54.980469 C 62.5625 55.117188 62.664062 55.320312 62.664062 55.554688 C 62.664062 55.824219 62.527344 56.027344 62.257812 56.230469 C 61.984375 56.429688 61.578125 56.5 61.035156 56.5 C 60.558594 56.5 60.152344 56.429688 59.878906 56.261719 C 59.574219 56.058594 59.371094 55.824219 59.304688 55.589844 Z M 57.773438 56.363281 L 57.773438 55.925781 C 57.640625 56.058594 57.46875 56.195312 57.265625 56.296875 C 57.0625 56.398438 56.824219 56.429688 56.585938 56.429688 C 56.347656 56.429688 56.109375 56.398438 55.941406 56.296875 C 55.738281 56.230469 55.601562 56.09375 55.535156 55.925781 C 55.433594 55.757812 55.398438 55.554688 55.398438 55.285156 L 55.398438 53.464844 L 56.347656 53.464844 L 56.347656 54.78125 C 56.347656 55.183594 56.382812 55.417969 56.417969 55.519531 C 56.449219 55.621094 56.519531 55.691406 56.621094 55.722656 C 56.722656 55.789062 56.824219 55.789062 56.960938 55.789062 C 57.128906 55.789062 57.265625 55.757812 57.402344 55.691406 C 57.539062 55.621094 57.605469 55.519531 57.671875 55.417969 C 57.707031 55.320312 57.742188 55.050781 57.742188 54.644531 L 57.742188 53.429688 L 58.691406 53.429688 L 58.691406 56.261719 L 57.773438 56.261719 Z M 53.460938 56.363281 L 53.460938 52.453125 L 54.414062 52.453125 L 54.414062 56.363281 Z M 51.59375 56.363281 L 51.59375 55.925781 C 51.457031 56.058594 51.289062 56.195312 51.085938 56.296875 C 50.882812 56.398438 50.644531 56.429688 50.40625 56.429688 C 50.167969 56.429688 49.929688 56.398438 49.761719 56.296875 C 49.558594 56.230469 49.421875 56.09375 49.351562 55.925781 C 49.25 55.757812 49.21875 55.554688 49.21875 55.285156 L 49.21875 53.464844 L 50.167969 53.464844 L 50.167969 54.78125 C 50.167969 55.183594 50.203125 55.417969 50.234375 55.519531 C 50.269531 55.621094 50.339844 55.691406 50.441406 55.722656 C 50.542969 55.789062 50.644531 55.789062 50.78125 55.789062 C 50.949219 55.789062 51.085938 55.757812 51.222656 55.691406 C 51.355469 55.621094 51.425781 55.519531 51.492188 55.417969 C 51.527344 55.320312 51.5625 55.050781 51.5625 54.644531 L 51.5625 53.429688 L 52.511719 53.429688 L 52.511719 56.261719 L 51.59375 56.261719 Z M 47.382812 56.363281 L 46.433594 56.363281 L 46.433594 53.53125 L 47.316406 53.53125 L 47.316406 53.9375 C 47.453125 53.734375 47.621094 53.632812 47.722656 53.566406 C 47.859375 53.5 47.996094 53.464844 48.132812 53.464844 C 48.335938 53.464844 48.574219 53.5 48.777344 53.601562 L 48.46875 54.238281 C 48.300781 54.171875 48.164062 54.105469 48.027344 54.105469 C 47.894531 54.105469 47.792969 54.140625 47.6875 54.207031 C 47.585938 54.273438 47.519531 54.375 47.484375 54.511719 C 47.417969 54.644531 47.417969 54.980469 47.417969 55.453125 L 47.417969 56.363281 Z M 44.632812 56.363281 L 44.632812 55.925781 C 44.496094 56.058594 44.328125 56.195312 44.125 56.296875 C 43.921875 56.398438 43.683594 56.429688 43.445312 56.429688 C 43.207031 56.429688 42.96875 56.398438 42.800781 56.296875 C 42.597656 56.230469 42.460938 56.09375 42.390625 55.925781 C 42.289062 55.757812 42.257812 55.554688 42.257812 55.285156 L 42.257812 53.464844 L 43.207031 53.464844 L 43.207031 54.78125 C 43.207031 55.183594 43.242188 55.417969 43.273438 55.519531 C 43.308594 55.621094 43.375 55.691406 43.480469 55.722656 C 43.582031 55.789062 43.683594 55.789062 43.816406 55.789062 C 43.988281 55.789062 44.125 55.757812 44.257812 55.691406 C 44.394531 55.621094 44.464844 55.519531 44.53125 55.417969 C 44.566406 55.320312 44.597656 55.050781 44.597656 54.644531 L 44.597656 53.429688 L 45.550781 53.429688 L 45.550781 56.261719 L 44.632812 56.261719 Z M 37.230469 56.363281 L 37.230469 52.453125 L 38.25 52.453125 L 38.25 54.207031 L 40.285156 52.453125 L 41.644531 52.453125 L 39.777344 53.96875 L 41.746094 56.363281 L 40.457031 56.363281 L 39.097656 54.511719 L 38.28125 55.148438 L 38.28125 56.328125 L 37.230469 56.328125 Z M 37.230469 56.363281 " fill-opacity="1" fill-rule="nonzero"/><g clip-path="url(#63c7753a1a)"><g clip-path="url(#4cb98f589e)"><g transform="matrix(1, 0, 0, 1, 15, 48)"><g clip-path="url(#f006c11b76)"><g clip-path="url(#b8ce09d954)"><g clip-path="url(#546d8302d1)"><path fill="#ffffff" d="M 0.363281 0.613281 L 90.464844 0.613281 L 90.464844 10.824219 L 0.363281 10.824219 Z M 0.363281 0.613281 " fill-opacity="1" fill-rule="nonzero"/></g></g></g></g></g></g></g></g></svg>